<?xml version="1.0" standalone="no"?>
<!DOCTYPE svg PUBLIC "-//W3C//DTD SVG 20010904//EN"
 "http://www.w3.org/TR/2001/REC-SVG-20010904/DTD/svg10.dtd">
<svg version="1.0" xmlns="http://www.w3.org/2000/svg"
 width="260.000000pt" height="260.000000pt" viewBox="0 0 260.000000 260.000000"
 preserveAspectRatio="xMidYMid meet">
<metadata>
Created by potrace 1.11, written by Peter Selinger 2001-2013
</metadata>
<g transform="translate(0.000000,260.000000) scale(0.100000,-0.100000)"
fill="#000000" stroke="none">
<path d="M130 2130 l0 -140 565 0 565 0 0 103 0 103 -38 37 -38 37 -228 0
-229 0 -39 -36 -39 -35 -40 35 -39 36 -220 0 -220 0 0 -140z"/>
<path d="M1322 2237 c-32 -33 -32 -33 -32 -140 l0 -107 605 0 605 0 0 140 0
140 -24 0 c-16 0 -32 -11 -46 -30 -12 -16 -27 -30 -34 -30 -7 0 -25 14 -41 30
l-29 30 -210 0 c-200 0 -212 -1 -224 -20 -7 -11 -18 -20 -26 -20 -7 0 -21 9
-31 20 -17 19 -31 20 -250 20 l-231 0 -32 -33z"/>
<path d="M845 1811 c-154 -71 -150 -280 7 -346 47 -19 89 -19 136 0 160 67
160 283 0 350 -49 20 -94 19 -143 -4z"/>
<path d="M1665 1746 c-101 -44 -125 -178 -46 -257 65 -65 157 -65 222 0 124
124 -15 327 -176 257z"/>
<path d="M0 1345 l0 -85 73 1 c93 0 138 16 156 53 33 70 -26 116 -151 116
l-78 0 0 -85z"/>
<path d="M2386 1389 c-34 -27 -36 -79 -4 -109 19 -17 35 -20 120 -20 l98 0 0
75 0 75 -94 0 c-79 0 -97 -3 -120 -21z"/>
<path d="M1765 1129 c-38 -11 -55 -34 -55 -75 0 -23 8 -39 26 -53 26 -20 37
-21 445 -21 l419 0 0 80 0 80 -402 -1 c-222 0 -416 -5 -433 -10z"/>
<path d="M0 1046 l0 -84 66 -8 c37 -3 214 -4 393 -2 252 4 332 8 349 19 29 18
44 62 31 97 -20 57 -19 57 -446 60 l-393 3 0 -85z"/>
<path d="M399 821 l-29 -29 0 -282 0 -282 29 -29 29 -29 882 0 882 0 29 29 29
29 0 282 0 282 -29 29 -29 29 -882 0 -882 0 -29 -29z m1656 -103 c46 -21 55
-53 55 -208 0 -155 -9 -187 -55 -208 -19 -9 -208 -12 -741 -12 -776 0 -756 -1
-782 55 -17 37 -16 302 2 334 29 52 9 50 778 51 535 0 724 -3 743 -12z"/>
<path d="M0 740 l0 -80 114 0 c63 0 122 3 131 6 18 7 45 55 45 79 0 9 -13 30
-29 46 -29 29 -31 29 -145 29 l-116 0 0 -80z"/>
<path d="M2376 789 c-19 -15 -26 -30 -26 -54 0 -24 7 -39 26 -54 23 -18 41
-21 125 -21 l99 0 0 75 0 75 -99 0 c-84 0 -102 -3 -125 -21z"/>
<path d="M1388 110 c-26 -20 -42 -68 -31 -95 4 -13 20 -15 77 -13 l71 3 -1 39
c-1 30 -8 46 -28 63 -33 28 -56 29 -88 3z"/>
<path d="M1051 99 c-18 -19 -33 -84 -22 -94 2 -3 40 -5 84 -5 l80 0 -6 42 c-4
27 -14 49 -27 60 -30 25 -84 23 -109 -3z"/>
</g>
</svg>
